<svg xmlns="http://www.w3.org/2000/svg" viewBox="0 0 952 1024.05" fill="currentColor" aria-hidden="true"><path d="M418 -56Q439 -69 454.0 -61.0Q469 -53 469 -28V371Q469 397 454.0 420.5Q439 444 418 457L88 662Q66 671 51.0 663.0Q36 655 36 633V235Q36 209 51.0 185.5Q66 162 88 149L418 -56ZM139 788Q117 775 117.0 759.0Q117 743 139 731L464 525Q485 513 512.5 512.0Q540 511 561 520L886 685Q907 698 907.0 713.5Q907 729 886 742L543 947Q526 960 497.0 960.0Q468 960 446 947L139 788ZM561 -28Q561 -53 576.0 -61.0Q591 -69 612 -56L937 109Q958 122 973.0 145.5Q988 169 988 195V594Q988 620 973.0 627.5Q958 635 937 623L612 457Q590 445 575.5 421.0Q561 397 561 372Z" transform="translate(-36 960) scale(1 -1)"/></svg>
