<?xml version="1.0"?>
<svg width="256" height="256" xmlns="http://www.w3.org/2000/svg" xmlns:svg="http://www.w3.org/2000/svg" enable-background="new 0 0 256 256" version="1.1" xml:space="preserve">
 <style type="text/css">.st0{fill-rule:evenodd;clip-rule:evenodd;fill:url(#SVGID_1_);}
	.st1{fill-rule:evenodd;clip-rule:evenodd;fill:url(#SVGID_2_);}
	.st2{fill:#FFFFFF;}</style>
 <g class="layer">
  <title>Layer 1</title>
  <g id="svg_1">
   <linearGradient gradientUnits="userSpaceOnUse" id="SVGID_1_" x1="11.14" x2="245.53" y1="10.65" y2="245.04">
    <stop offset="0" stop-color="#5E72E4"/>
    <stop offset="1" stop-color="#778AFF"/>
   </linearGradient>
   <path class="st0" d="m36.4,0.2l183.8,0c19.7,0 35.7,16 35.7,35.7l0,183.8c0,19.7 -16,35.7 -35.7,35.7l-183.8,0c-19.7,0 -35.7,-16 -35.7,-35.7l0,-183.8c0,-19.7 16,-35.7 35.7,-35.7z" id="svg_2"/>
   <linearGradient gradientUnits="userSpaceOnUse" id="SVGID_2_" x1="0.67" x2="0.67" y1="0.18" y2="0.18">
    <stop offset="0" stop-color="#5E72E4"/>
    <stop offset="1" stop-color="#778AFF"/>
   </linearGradient>
   <path class="st1" d="m0.7,0.2" id="svg_3"/>
  </g>
  <path class="st2" d="m128.3,46.6c-46.66,0 -84.4,37.84 -84.4,84.4c0,37.52 24.55,69.31 58.46,80.36l10.52,-42.63c-14.88,-6.06 -25.3,-20.62 -25.3,-37.74c0,-22.54 18.28,-40.71 40.71,-40.71c22.54,0 40.71,18.28 40.71,40.71c0,17.01 -10.42,31.57 -25.3,37.74l10.52,42.63c33.91,-10.95 58.46,-42.73 58.46,-80.36c0.11,-46.56 -37.74,-84.4 -84.4,-84.4z" id="svg_4"/>
 </g>
</svg>